<svg xmlns="http://www.w3.org/2000/svg" enable-background="new 0 0 32 32" viewBox="0 0 32 32" id="normal-emoticon"><path d="M16,0.5C7.45313,0.5,0.5,7.45313,0.5,16S7.45313,31.5,16,31.5S31.5,24.54688,31.5,16S24.54688,0.5,16,0.5z M16,28.5C9.10742,28.5,3.5,22.89258,3.5,16S9.10742,3.5,16,3.5S28.5,9.10742,28.5,16S22.89258,28.5,16,28.5z"></path><path d="M12.25873 12.10437c0-1.18665-.96191-2.14862-2.14856-2.14862s-2.14862.96198-2.14862 2.14862c0 1.18658.96198 2.14856 2.14862 2.14856S12.25873 13.29095 12.25873 12.10437zM21.88983 9.95575c-1.18665 0-2.14856.96198-2.14856 2.14862 0 1.18658.96191 2.14856 2.14856 2.14856s2.14862-.96198 2.14862-2.14856C24.03845 10.91772 23.07648 9.95575 21.88983 9.95575zM21.65039 20.54395H10.3501c-.82861 0-1.5.67188-1.5 1.5s.67139 1.5 1.5 1.5h11.30029c.82813 0 1.5-.67188 1.5-1.5S22.47852 20.54395 21.65039 20.54395z"></path></svg>