<svg viewBox="0 0 200 200" xmlns="http://www.w3.org/2000/svg">
  <path fill="#FF00FF" d="M17.3,-34C21.8,-27.3,24.5,-21.5,35.9,-16C47.3,-10.5,67.3,-5.2,64.8,-1.5C62.3,2.3,37.1,4.6,29.8,17.3C22.6,29.9,33.2,52.9,31.2,56.5C29.2,60.1,14.6,44.4,4.5,36.6C-5.5,28.7,-11.1,28.8,-19.2,28.7C-27.4,28.6,-38.1,28.4,-50.6,23.6C-63.2,18.8,-77.5,9.4,-75.5,1.2C-73.5,-7.1,-55.2,-14.2,-45.9,-24.7C-36.7,-35.2,-36.6,-49.2,-30.5,-54.9C-24.3,-60.7,-12.2,-58.2,-2.9,-53.2C6.4,-48.2,12.7,-40.6,17.3,-34Z" transform="translate(100 100)" />
</svg>
